<svg width="167" height="67" viewBox="0 0 167 67" fill="none" xmlns="http://www.w3.org/2000/svg">
<path d="M46.8673 20.5318C48.1105 19.2952 48.1105 17.28 46.8673 16.0434L42.2938 11.4698L42.3003 11.4764C41.0898 10.2659 39.0092 8.18527 36.0648 5.24747C34.6777 3.89308 32.4335 3.90616 31.0595 5.28019L5.29327 31.0268C4.96361 31.3542 4.70198 31.7436 4.52344 32.1726C4.34491 32.6015 4.25299 33.0616 4.25299 33.5262C4.25299 33.9908 4.34491 34.4509 4.52344 34.8798C4.70198 35.3088 4.96361 35.6982 5.29327 36.0256L31.0529 61.7656C31.7171 62.4286 32.6172 62.801 33.5556 62.801C34.4941 62.801 35.3942 62.4286 36.0583 61.7656L46.8607 50.9697C48.1039 49.7331 48.1039 47.7179 46.8607 46.4813C46.2636 45.8871 45.4556 45.5536 44.6132 45.5536C43.7709 45.5536 42.9628 45.8871 42.3657 46.4813L34.187 54.6731C33.8468 55.0133 33.3168 55.0133 32.9766 54.6731L12.3989 34.1151C12.0587 33.7748 12.0587 33.2448 12.3989 32.9046L32.97 12.3466C32.9962 12.3204 33.0289 12.3008 33.0551 12.2746C33.3953 12.0064 33.8664 12.0325 34.1805 12.3466L42.3723 20.5318C43.6154 21.775 45.6307 21.775 46.8673 20.5318ZM26.7346 33.657C26.7346 35.4999 27.4674 37.2673 28.7717 38.5705C30.076 39.8736 31.8451 40.6057 33.6898 40.6057C35.5344 40.6057 37.3035 39.8736 38.6078 38.5705C39.9122 37.2673 40.6449 35.4999 40.6449 33.657C40.6449 31.8142 39.9122 30.0467 38.6078 28.7436C37.3035 27.4405 35.5344 26.7084 33.6898 26.7084C31.8451 26.7084 30.076 27.4405 28.7717 28.7436C27.4674 30.0467 26.7346 31.8142 26.7346 33.657ZM61.818 31.1315L53.7767 23.1294C52.5335 21.8928 50.5183 21.8928 49.2816 23.1359C48.9861 23.4302 48.7516 23.7799 48.5915 24.1651C48.4315 24.5502 48.3491 24.9631 48.3491 25.3802C48.3491 25.7972 48.4315 26.2102 48.5915 26.5953C48.7516 26.9805 48.9861 27.3302 49.2816 27.6244L54.7123 33.0485C55.0525 33.3888 55.0525 33.9188 54.7123 34.259L49.3602 39.6046C49.0646 39.8988 48.8301 40.2486 48.67 40.6337C48.51 41.0188 48.4276 41.4318 48.4276 41.8488C48.4276 42.2659 48.51 42.6788 48.67 43.064C48.8301 43.4491 49.0646 43.7988 49.3602 44.0931C49.9573 44.6872 50.7653 45.0207 51.6077 45.0207C52.45 45.0207 53.2581 44.6872 53.8552 44.0931L61.8245 36.1303C62.153 35.802 62.4135 35.4122 62.5911 34.983C62.7686 34.5539 62.8597 34.0939 62.8591 33.6295C62.8585 33.1651 62.7662 32.7054 62.5875 32.2767C62.4089 31.848 62.1474 31.4588 61.818 31.1315Z" fill="#AAAAAA"/>
<path d="M76.733 38H74.8864L80.2273 23.4545H82.0455L87.3864 38H85.5398L81.1932 25.7557H81.0795L76.733 38ZM77.4148 32.3182H84.858V33.8807H77.4148V32.3182ZM90.1009 31.4375V38H88.4247V27.0909H90.044V28.7955H90.1861C90.4418 28.2415 90.83 27.7964 91.3509 27.4602C91.8717 27.1193 92.544 26.9489 93.3679 26.9489C94.1065 26.9489 94.7528 27.1004 95.3068 27.4034C95.8608 27.7017 96.2917 28.1562 96.5994 28.767C96.9072 29.3731 97.0611 30.1402 97.0611 31.0682V38H95.3849V31.1818C95.3849 30.3248 95.1624 29.6572 94.7173 29.179C94.2723 28.696 93.6615 28.4545 92.8849 28.4545C92.3499 28.4545 91.8717 28.5705 91.4503 28.8026C91.0336 29.0346 90.7045 29.3731 90.4631 29.8182C90.2216 30.2633 90.1009 30.803 90.1009 31.4375ZM103.868 27.0909V28.5114H98.2148V27.0909H103.868ZM99.8626 24.4773H101.539V34.875C101.539 35.3485 101.607 35.7036 101.745 35.9403C101.887 36.1723 102.067 36.3286 102.284 36.4091C102.507 36.4848 102.741 36.5227 102.988 36.5227C103.172 36.5227 103.324 36.5133 103.442 36.4943C103.56 36.4706 103.655 36.4517 103.726 36.4375L104.067 37.9432C103.953 37.9858 103.795 38.0284 103.591 38.071C103.388 38.1184 103.13 38.142 102.817 38.142C102.344 38.142 101.88 38.0402 101.425 37.8366C100.975 37.633 100.601 37.3229 100.303 36.9062C100.009 36.4896 99.8626 35.964 99.8626 35.3295V24.4773ZM114.134 38.2273C113.225 38.2273 112.422 37.9976 111.726 37.5384C111.03 37.0743 110.486 36.4209 110.093 35.5781C109.7 34.7306 109.503 33.7292 109.503 32.5739C109.503 31.428 109.7 30.4337 110.093 29.5909C110.486 28.7481 111.033 28.0971 111.733 27.6378C112.434 27.1785 113.244 26.9489 114.162 26.9489C114.873 26.9489 115.434 27.0672 115.846 27.304C116.262 27.536 116.579 27.8011 116.797 28.0994C117.02 28.393 117.193 28.6345 117.316 28.8239H117.458V23.4545H119.134V38H117.515V36.3239H117.316C117.193 36.5227 117.017 36.7737 116.79 37.0767C116.563 37.375 116.239 37.6425 115.817 37.8793C115.396 38.1113 114.835 38.2273 114.134 38.2273ZM114.361 36.7216C115.033 36.7216 115.602 36.5464 116.066 36.196C116.53 35.8409 116.882 35.3509 117.124 34.7259C117.365 34.0961 117.486 33.3693 117.486 32.5455C117.486 31.7311 117.368 31.0185 117.131 30.4077C116.894 29.7921 116.544 29.3139 116.08 28.973C115.616 28.6274 115.043 28.4545 114.361 28.4545C113.651 28.4545 113.059 28.6368 112.586 29.0014C112.117 29.3613 111.764 29.8513 111.527 30.4716C111.295 31.0871 111.179 31.7784 111.179 32.5455C111.179 33.322 111.298 34.0275 111.534 34.6619C111.776 35.2917 112.131 35.7936 112.6 36.1676C113.073 36.5369 113.66 36.7216 114.361 36.7216ZM126.01 38.2273C124.959 38.2273 124.052 37.9953 123.29 37.5312C122.533 37.0625 121.948 36.4091 121.536 35.571C121.129 34.7282 120.925 33.7481 120.925 32.6307C120.925 31.5133 121.129 30.5284 121.536 29.6761C121.948 28.8191 122.521 28.1515 123.255 27.6733C123.993 27.1903 124.855 26.9489 125.84 26.9489C126.408 26.9489 126.969 27.0436 127.523 27.233C128.077 27.4223 128.581 27.7301 129.036 28.1562C129.49 28.5777 129.853 29.1364 130.123 29.8324C130.392 30.5284 130.527 31.3854 130.527 32.4034V33.1136H122.118V31.6648H128.823C128.823 31.0492 128.7 30.5 128.453 30.017C128.212 29.5341 127.866 29.1529 127.417 28.8736C126.971 28.5942 126.446 28.4545 125.84 28.4545C125.172 28.4545 124.595 28.6203 124.107 28.9517C123.624 29.2784 123.252 29.7045 122.992 30.2301C122.731 30.7557 122.601 31.3191 122.601 31.9205V32.8864C122.601 33.7102 122.743 34.4086 123.027 34.9815C123.316 35.5497 123.716 35.983 124.228 36.2812C124.739 36.5748 125.333 36.7216 126.01 36.7216C126.451 36.7216 126.848 36.66 127.203 36.5369C127.563 36.4091 127.873 36.2197 128.134 35.9688C128.394 35.7131 128.596 35.3958 128.738 35.017L130.357 35.4716C130.186 36.0208 129.9 36.5038 129.498 36.9205C129.095 37.3324 128.598 37.6544 128.006 37.8864C127.414 38.1136 126.749 38.2273 126.01 38.2273ZM139.804 29.5341L138.299 29.9602C138.204 29.7093 138.064 29.4654 137.88 29.2287C137.7 28.9872 137.453 28.7884 137.141 28.6321C136.828 28.4759 136.428 28.3977 135.941 28.3977C135.273 28.3977 134.717 28.5516 134.272 28.8594C133.831 29.1624 133.611 29.5483 133.611 30.017C133.611 30.4337 133.763 30.7628 134.066 31.0043C134.369 31.2457 134.842 31.447 135.486 31.608L137.105 32.0057C138.081 32.2424 138.808 32.6046 139.286 33.0923C139.764 33.5753 140.003 34.1979 140.003 34.9602C140.003 35.5852 139.823 36.1439 139.463 36.6364C139.108 37.1288 138.611 37.517 137.972 37.8011C137.333 38.0852 136.589 38.2273 135.742 38.2273C134.629 38.2273 133.708 37.9858 132.979 37.5028C132.25 37.0199 131.788 36.3144 131.594 35.3864L133.185 34.9886C133.337 35.5758 133.623 36.0161 134.044 36.3097C134.471 36.6032 135.027 36.75 135.713 36.75C136.495 36.75 137.115 36.5843 137.574 36.2528C138.038 35.9167 138.27 35.5142 138.27 35.0455C138.27 34.6667 138.138 34.3494 137.873 34.0938C137.607 33.8333 137.2 33.6392 136.651 33.5114L134.833 33.0852C133.834 32.8485 133.1 32.4815 132.631 31.9844C132.167 31.4825 131.935 30.8551 131.935 30.1023C131.935 29.4867 132.108 28.9422 132.453 28.4688C132.804 27.9953 133.28 27.6236 133.881 27.3537C134.487 27.0838 135.174 26.9489 135.941 26.9489C137.02 26.9489 137.868 27.1856 138.483 27.6591C139.104 28.1326 139.544 28.7576 139.804 29.5341ZM141.526 38V27.0909H143.202V38H141.526ZM142.379 25.2727C142.052 25.2727 141.77 25.1615 141.533 24.9389C141.301 24.7164 141.185 24.4489 141.185 24.1364C141.185 23.8239 141.301 23.5563 141.533 23.3338C141.77 23.1113 142.052 23 142.379 23C142.705 23 142.985 23.1113 143.217 23.3338C143.453 23.5563 143.572 23.8239 143.572 24.1364C143.572 24.4489 143.453 24.7164 143.217 24.9389C142.985 25.1615 142.705 25.2727 142.379 25.2727ZM149.676 42.3182C148.866 42.3182 148.17 42.214 147.588 42.0057C147.005 41.8021 146.52 41.5322 146.132 41.196C145.748 40.8646 145.443 40.5095 145.216 40.1307L146.551 39.1932C146.702 39.392 146.894 39.6193 147.126 39.875C147.358 40.1354 147.675 40.3603 148.078 40.5497C148.485 40.7438 149.018 40.8409 149.676 40.8409C150.556 40.8409 151.283 40.6278 151.856 40.2017C152.429 39.7756 152.716 39.108 152.716 38.1989V35.983H152.574C152.45 36.1818 152.275 36.428 152.048 36.7216C151.825 37.0104 151.503 37.2685 151.082 37.4957C150.665 37.7183 150.102 37.8295 149.392 37.8295C148.511 37.8295 147.72 37.6212 147.02 37.2045C146.324 36.7879 145.772 36.1818 145.365 35.3864C144.962 34.5909 144.761 33.625 144.761 32.4886C144.761 31.3712 144.958 30.3982 145.35 29.5696C145.743 28.7363 146.29 28.0923 146.991 27.6378C147.692 27.1785 148.502 26.9489 149.42 26.9489C150.13 26.9489 150.694 27.0672 151.11 27.304C151.532 27.536 151.854 27.8011 152.076 28.0994C152.304 28.393 152.479 28.6345 152.602 28.8239H152.772V27.0909H154.392V38.3125C154.392 39.25 154.179 40.0123 153.752 40.5994C153.331 41.1913 152.763 41.6245 152.048 41.8991C151.338 42.1785 150.547 42.3182 149.676 42.3182ZM149.619 36.3239C150.291 36.3239 150.859 36.17 151.324 35.8622C151.788 35.5545 152.14 35.1117 152.382 34.5341C152.623 33.9564 152.744 33.2652 152.744 32.4602C152.744 31.6742 152.626 30.9806 152.389 30.3793C152.152 29.7779 151.802 29.3068 151.338 28.9659C150.874 28.625 150.301 28.4545 149.619 28.4545C148.909 28.4545 148.317 28.6345 147.843 28.9943C147.375 29.3542 147.022 29.8371 146.785 30.4432C146.553 31.0492 146.437 31.7216 146.437 32.4602C146.437 33.2178 146.556 33.8878 146.792 34.4702C147.034 35.0478 147.389 35.5024 147.858 35.8338C148.331 36.1605 148.918 36.3239 149.619 36.3239ZM158.136 31.4375V38H156.46V27.0909H158.079V28.7955H158.221C158.477 28.2415 158.865 27.7964 159.386 27.4602C159.907 27.1193 160.579 26.9489 161.403 26.9489C162.142 26.9489 162.788 27.1004 163.342 27.4034C163.896 27.7017 164.327 28.1562 164.635 28.767C164.942 29.3731 165.096 30.1402 165.096 31.0682V38H163.42V31.1818C163.42 30.3248 163.198 29.6572 162.752 29.179C162.307 28.696 161.697 28.4545 160.92 28.4545C160.385 28.4545 159.907 28.5705 159.485 28.8026C159.069 29.0346 158.74 29.3731 158.498 29.8182C158.257 30.2633 158.136 30.803 158.136 31.4375Z" fill="#AAAAAA"/>
</svg>
