<svg width="171" height="61" viewBox="0 0 171 61" fill="none" xmlns="http://www.w3.org/2000/svg">
  <path d="M16.1574 22.875C9.45501 24.6033 5.08334 27.5644 5.08334 30.9448C5.08334 36.3001 16.2794 40.6667 30.1188 40.6667C31.9996 40.6667 33.3213 40.5675 35.075 40.4201" stroke="#AAAAAA" stroke-width="2" stroke-linecap="round" stroke-linejoin="round"/>
  <path d="M25.0024 40.4125C23.9527 38.8977 22.9538 37.5328 22.0032 35.8375C15.0111 23.3833 13.1379 11.0054 17.8603 8.20197C20.7832 6.43043 25.6048 8.84502 30.5025 13.9309" stroke="#AAAAAA" stroke-width="2" stroke-linecap="round" stroke-linejoin="round"/>
  <path d="M16.3404 39.1086C14.5561 45.9406 14.9171 51.0951 17.7637 52.8209C22.2955 55.5659 31.4557 47.8443 38.2063 35.5274C39.1213 33.8245 39.9423 32.1495 40.6667 30.5" stroke="#AAAAAA" stroke-width="2" stroke-linecap="round" stroke-linejoin="round"/>
  <path d="M30.5 47.0717C35.4003 52.155 40.2015 54.5696 43.1524 52.7981C47.8545 49.9971 46.0016 37.6192 39.0019 25.1625C38.0259 23.4418 37.027 22.1024 36.0027 20.5875" stroke="#AAAAAA" stroke-width="2" stroke-linecap="round" stroke-linejoin="round"/>
  <path d="M44.8859 38.125C51.5247 36.3789 55.9167 33.423 55.9167 30.0527C55.9167 24.6898 44.713 20.3334 30.894 20.3334C28.9954 20.3334 27.6762 20.4071 25.925 20.5545" stroke="#AAAAAA" stroke-width="2" stroke-linecap="round" stroke-linejoin="round"/>
  <path d="M20.3333 30.5C21.0577 28.8225 21.8761 27.1755 22.7937 25.4726C29.5215 13.1607 38.6867 5.41883 43.2439 8.18671C46.0652 9.9125 46.4515 15.0645 44.6673 21.8939M31.1608 30.5381H31.1354C31.11 30.8685 30.8304 31.1481 30.4746 31.1481C30.3044 31.1397 30.1439 31.0666 30.0258 30.9438C29.9076 30.821 29.8409 30.6577 29.8392 30.4873C29.8392 30.1315 30.1188 29.8519 30.4492 29.8519H30.4238C30.7542 29.8265 31.0592 30.1315 31.0592 30.4619" stroke="#AAAAAA" stroke-width="2" stroke-linecap="round" stroke-linejoin="round"/>
  <path d="M63.0758 39V24.4545H67.9906C69.127 24.4545 70.0597 24.6487 70.7889 25.0369C71.5181 25.4205 72.0578 25.9484 72.4082 26.6207C72.7586 27.2931 72.9338 28.0578 72.9338 28.9148C72.9338 29.7718 72.7586 30.5317 72.4082 31.1946C72.0578 31.8575 71.5204 32.3783 70.796 32.7571C70.0716 33.1312 69.1459 33.3182 68.019 33.3182H64.0417V31.7273H67.9622C68.7387 31.7273 69.3637 31.6136 69.8372 31.3864C70.3154 31.1591 70.661 30.8371 70.8741 30.4205C71.0919 29.9991 71.2008 29.4972 71.2008 28.9148C71.2008 28.3324 71.0919 27.8234 70.8741 27.3878C70.6563 26.9522 70.3083 26.616 69.8301 26.3793C69.3519 26.1378 68.7198 26.017 67.9338 26.017H64.8372V39H63.0758ZM69.9224 32.4659L73.502 39H71.4565L67.9338 32.4659H69.9224ZM79.0982 39.2273C78.0471 39.2273 77.1406 38.9545 76.3782 38.4091C75.6205 37.8636 74.9216 37.0466 74.2814 35.9582V39H72.9338V24.4545H74.2814V28.6591C74.9203 27.5455 75.622 26.7159 76.3863 26.1705C77.1506 25.6193 78.0515 25.3409 79.0891 25.3409C79.9977 25.3409 80.7722 25.5071 81.4124 25.8405C82.0526 26.1739 82.5566 26.6829 82.9244 27.3674C83.2968 28.0518 83.4836 28.8747 83.4836 29.8364C83.4836 30.7982 83.2985 31.6242 82.9283 32.3145C82.5581 33.0047 82.0453 33.5559 81.3897 33.9682C80.7388 34.375 80.0029 34.5784 79.1819 34.5784C78.3354 34.5784 77.619 34.3678 77.0327 33.9466C76.4502 33.5205 76.0378 32.9281 75.7955 32.1694C75.5578 31.4106 75.439 30.6193 75.439 29.7955C75.439 29.0142 75.5479 28.3359 75.7656 27.7605C75.9834 27.185 76.3182 26.7369 76.77 26.4164C77.2218 26.0911 77.7855 25.9284 78.4619 25.9284C79.1457 25.9284 79.7575 26.1227 80.2974 26.5114C80.8373 26.9001 81.285 27.4371 81.6406 28.1227C82.0008 28.8083 82.1835 29.6379 82.1835 30.6114C82.1835 31.6273 81.9876 32.4502 81.5957 33.0801C81.2038 33.7101 80.6641 34.1832 79.9765 34.4995C79.2927 34.8157 78.5315 34.9739 77.6928 34.9739C76.9334 34.9739 76.2676 34.8193 75.6953 34.5102C75.123 34.1963 74.6789 33.737 74.3627 33.1322C74.0501 32.5273 73.888 31.8205 73.888 31.0114C73.888 30.2236 74.058 29.5437 74.3959 28.9676C74.7375 28.3867 75.2185 27.932 75.8329 27.6036C76.4474 27.2751 77.1533 27.1109 77.9508 27.1109C78.8765 27.1109 79.656 27.3283 80.2892 27.7631C80.926 28.1921 81.4013 28.7796 81.7153 29.525C82.0293 30.2655 82.1869 31.1114 82.1869 32.0627C82.1869 33.0426 82.0025 33.8893 81.6338 34.6027C81.2651 35.3161 80.7346 35.8864 80.0423 36.3136C79.3499 36.7409 78.5511 36.9545 77.6459 36.9545C76.7727 36.9545 76.0207 36.7178 75.3899 36.2482C74.7591 35.7786 74.3014 35.1023 74.0168 34.225C73.7321 33.3477 73.5899 32.3238 73.5899 31.1534C73.5899 30.1714 73.7519 29.2924 74.0759 28.5166C74.3999 27.7409 74.8675 27.1233 75.4786 26.6636C76.0897 26.2039 76.828 25.964 77.6936 25.964C78.464 25.964 79.1096 26.1932 79.6304 26.6515C80.1511 27.1098 80.5379 27.8005 80.7905 28.7236H79.0891C78.8927 28.0283 78.5686 27.4756 78.1168 27.0693C77.6696 26.663 77.1488 26.4598 76.5543 26.4598C75.9265 26.4598 75.4077 26.6786 74.998 27.1161C74.5882 27.5536 74.3806 28.1083 74.3806 28.7761C74.3806 29.514 74.5549 30.1668 74.9034 30.7345C75.2556 31.3023 75.7542 31.7471 76.3992 32.069C77.0442 32.3909 77.7491 32.5518 78.5115 32.5518C79.304 32.5518 79.9596 32.3846 80.4783 32.0502C81.0007 31.711 81.3789 31.2338 81.6129 30.6186C81.8506 30.0035 81.9695 29.3057 81.9695 28.525C81.9695 27.5005 81.7256 26.6867 81.2378 26.0836C80.75 25.4804 80.0587 25.1705 79.162 25.1539ZM84.5454 33.4091V24.4545H86.619V26.4318C86.9773 25.7216 87.2866 25.1782 87.548 24.7955H89.5255V38.6364H87.4519V34.8523C87.4519 34.0324 87.296 33.4407 86.9845 33.0773C86.6767 32.7138 86.1927 32.5311 85.5325 32.5311C85.1711 32.5311 84.8097 32.5766 84.4483 32.6676C84.0909 32.7585 83.7363 32.895 83.3844 33.0773C83.0361 33.2557 82.7235 33.4836 82.4465 33.7609C82.1731 34.0341 81.956 34.3494 81.7952 34.7068C81.6344 35.0641 81.554 35.4533 81.554 35.8744C81.554 36.6063 81.7671 37.2227 82.1933 37.7236C82.6195 38.2245 83.1915 38.4699 83.9093 38.4599C84.144 38.4599 84.3822 38.4381 84.6238 38.3944C84.8681 38.3506 85.1097 38.2807 85.3486 38.1846C85.5912 38.0836 85.8145 37.9521 86.0184 37.7901C86.226 37.6281 86.3935 37.4571 86.5208 37.277C86.6527 37.0911 86.7585 36.911 86.838 36.7369C86.9212 36.5585 86.982 36.3894 87.0206 36.2295C87.0638 36.0696 87.0909 35.9332 87.1019 35.8205C87.1119 35.7078 87.1169 35.6286 87.1169 35.5829C87.1169 35.2409 87.0447 34.9807 86.9001 34.8023C86.7592 34.6238 86.5765 34.4995 86.352 34.4294C86.1311 34.3593 85.7942 34.3242 85.3415 34.3242C84.7748 34.3242 84.2947 34.4193 83.9012 34.6095C83.5115 34.7997 83.1699 35.0422 82.8765 35.3371C82.5869 35.6319 82.3576 35.9743 82.1885 36.3645C82.0231 36.7547 81.9384 37.1449 81.9384 37.5351C81.9384 38.0139 82.0358 38.4381 82.2305 38.8077C82.4253 39.1773 82.6867 39.4951 83.0147 39.7614C83.3463 40.0277 83.7245 40.2474 84.1491 40.4205C84.5736 40.5937 85.0057 40.7312 85.4454 40.833C85.885 40.9348 86.3374 40.9813 86.8025 40.9727C87.3269 40.9813 87.8251 40.9322 88.297 40.8255C88.7689 40.7189 89.1914 40.5716 89.5645 40.3836C89.9376 40.1956 90.2567 39.9614 90.5218 39.6818C90.7869 39.4022 90.9982 39.0879 91.1559 38.7388C91.3136 38.3897 91.4199 38.0283 91.4748 37.6545C91.5334 37.2807 91.5627 36.9471 91.5627 36.6536C91.5627 36.0955 91.4665 35.584 91.274 35.1191C91.0851 34.6543 90.7853 34.227 90.3747 33.8372C89.964 33.4473 89.464 33.1217 88.8748 32.8602C88.2893 32.5987 87.6409 32.4416 86.9295 32.3889C86.2157 32.3362 85.5719 32.4314 84.998 32.6746C84.4289 32.9178 83.9885 33.2985 83.6769 33.8168C83.3653 34.3351 83.2096 34.9353 83.2096 35.6174C83.2096 36.2136 83.3306 36.7473 83.5723 37.2184C83.8139 37.6852 84.1123 38.1064 84.4674 38.482C84.8225 38.8575 85.2302 39.1855 85.6904 39.466C86.1506 39.7421 86.6259 39.9727 87.1163 40.1579C87.6066 40.3431 88.092 40.4905 88.5726 40.6C89.0532 40.7095 89.5176 40.7682 89.9659 40.776C90.4142 40.7837 90.8519 40.7262 91.2791 40.6034C91.7063 40.4805 92.1181 40.2895 92.5144 40.0304C92.9107 39.7713 93.271 39.4432 93.5953 39.046C93.9196 38.6489 94.195 38.1937 94.4215 37.6805C94.648 37.1672 94.8085 36.6045 94.902 35.9924C94.9955 35.3802 95.0422 34.7352 95.0422 34.0574C95.0422 33.0801 94.9448 32.2012 94.75 31.4205C94.5553 30.6397 94.2509 30.0273 93.8368 29.5832C93.4227 29.1352 92.9285 28.8431 92.3543 28.7068C91.7802 28.5704 91.1462 28.5023 90.4522 28.5023C89.7981 28.5023 89.184 28.6062 88.61 28.814C88.0408 29.0218 87.5509 29.3385 87.1402 29.7641C86.7343 30.1853 86.4144 30.7052 86.1804 31.3237C85.9502 31.9422 85.8335 32.6352 85.8305 33.4091H84.5454Z" fill="#4E4E4E"/>
</svg>
